<svg width="126" height="82" viewBox="0 0 126 82" fill="none" xmlns="http://www.w3.org/2000/svg">
<path d="M37.2703 62.3077C34.7182 62.3077 32.4885 62.3077 30.525 62.2727C28.563 62.2378 26.8643 62.1663 25.384 62.0188C23.9037 61.8758 22.6388 61.6584 21.5416 61.333C20.4443 61.0076 19.5091 60.5758 18.6851 59.998C17.9682 59.4902 17.3006 58.917 16.6935 58.2798C16.0878 57.6428 15.5385 56.9494 15.061 56.2013C14.5822 55.4532 14.1666 54.661 13.8244 53.8248C13.4821 52.9884 13.2145 52.1157 13.0243 51.2125C12.8103 50.18 12.7567 49.0853 12.8553 47.8567C12.9539 46.6282 13.206 45.2749 13.5976 43.727C13.9892 42.1776 14.5131 40.4381 15.1681 38.4356C15.8188 36.4377 16.5949 34.1766 17.4851 31.5948L18.9246 27.4119L20.364 23.2289L21.8035 19.046L23.2431 14.863C23.705 13.5235 24.105 12.3527 24.4755 11.3157C24.8459 10.2787 25.184 9.3846 25.515 8.58786C25.8446 7.79111 26.1657 7.1054 26.508 6.49564C26.8502 5.88136 27.2094 5.34765 27.6094 4.85348C27.9644 4.4171 28.339 4.00808 28.7391 3.62035C29.1391 3.23262 29.556 2.87682 29.9968 2.55294C30.4335 2.22299 30.8912 1.92497 31.3617 1.65432C31.8363 1.38215 32.3223 1.14647 32.8251 0.938155C33.3942 0.702479 33.9829 0.529139 34.6351 0.395334C35.2858 0.261529 35.9957 0.1779 36.7999 0.120121C37.6041 0.0623412 38.5028 0.0304103 39.5296 0.0182462C40.5395 0 41.6987 0 43.0213 0H53.0062H62.9911H72.976H82.9608C84.2846 0 85.4424 0 86.4693 0.0136846C87.4963 0.0273693 88.3949 0.0577796 89.1991 0.115559C90.0034 0.173339 90.7122 0.263049 91.3638 0.390773C92.0147 0.524578 92.6049 0.697919 93.1737 0.933595C93.6768 1.13887 94.1629 1.37911 94.6375 1.64976C95.112 1.92041 95.5658 2.21995 96.0021 2.54838C96.4389 2.87834 96.8599 3.23413 97.2602 3.61579C97.6599 3.99895 98.0347 4.41254 98.39 4.84892C98.7897 5.34309 99.1486 5.88136 99.4911 6.49108C99.8336 7.1054 100.154 7.79111 100.484 8.58328C100.814 9.37552 101.152 10.2741 101.524 11.3111C101.895 12.3481 102.298 13.5189 102.756 14.8585L104.196 19.0414L105.635 23.2243L107.075 27.4073L108.514 31.5903C109.4 34.1721 110.18 36.4285 110.831 38.431C111.482 40.429 112.01 42.1746 112.402 43.7224C112.793 45.2718 113.041 46.6236 113.144 47.8522C113.242 49.0762 113.193 50.1755 112.975 51.2079C112.785 52.1111 112.517 52.9839 112.175 53.8202C111.833 54.6564 111.42 55.4487 110.938 56.1968C110.457 56.9449 109.911 57.6382 109.306 58.2753C108.7 58.9124 108.032 59.4856 107.314 59.9935C106.494 60.5728 105.557 61.0031 104.457 61.3285C103.356 61.6539 102.096 61.8713 100.615 62.0142C99.1346 62.1572 97.436 62.2317 95.474 62.2682C93.512 62.3031 91.2768 62.3031 88.7289 62.3031H75.8665H63.0037H50.1328H37.2703V62.3077Z" fill="#7209B7"/>
<path d="M35.6509 16.5507C36.0876 16.9325 36.5946 17.2172 37.1764 17.4075C37.758 17.5977 38.4088 17.6922 39.1342 17.6922C39.6708 17.6922 40.1568 17.6456 40.6019 17.5565C41.047 17.4674 41.447 17.3303 41.8061 17.152C42.1611 16.9724 42.4737 16.7742 42.7386 16.56C43.0019 16.3458 43.2203 16.1116 43.3893 15.8628C43.5625 15.606 43.6949 15.3599 43.7851 15.1231C43.8752 14.8849 43.9287 14.6601 43.9414 14.4419C43.9498 14.3794 43.9414 14.3208 43.9161 14.2703C43.8907 14.2158 43.8541 14.1692 43.8005 14.1266C43.7555 14.084 43.702 14.0481 43.6484 14.0295C43.5949 14.0095 43.533 13.9989 43.4667 13.9989H41.7019C41.6272 13.9989 41.5653 14.0068 41.5075 14.0228C41.4498 14.0388 41.4047 14.0614 41.3639 14.0933C41.3314 14.1239 41.2977 14.1638 41.2695 14.2144C41.2413 14.2649 41.2117 14.3235 41.1864 14.394C41.0878 14.6348 40.9723 14.8464 40.8441 15.0207C40.7159 15.1963 40.5723 15.3359 40.4159 15.4411C40.2596 15.5422 40.0737 15.6167 39.868 15.6672C39.6624 15.7178 39.4271 15.7418 39.1708 15.7418C38.4863 15.7418 37.9581 15.5395 37.5961 15.1338C37.2327 14.7293 37.0313 14.1213 36.9946 13.311L36.9777 12.6963L36.9946 12.0032C37.0074 11.5908 37.0651 11.2315 37.1637 10.9282C37.2623 10.6248 37.4031 10.3707 37.5876 10.1725C37.7778 9.97427 38.0088 9.8226 38.2722 9.72412C38.5356 9.62697 38.837 9.57645 39.1708 9.57645C39.4229 9.57645 39.6497 9.60308 39.8553 9.65493C40.0609 9.7095 40.2427 9.78798 40.399 9.89307C40.5638 9.99822 40.7117 10.1379 40.8441 10.3095C40.9765 10.4811 41.092 10.6834 41.1906 10.9215C41.223 10.996 41.2568 11.0612 41.2892 11.1118C41.3216 11.1623 41.3554 11.2049 41.3878 11.2369C41.4202 11.2608 41.4624 11.2794 41.516 11.2914C41.5695 11.3034 41.6315 11.3113 41.7061 11.3113H43.471C43.5372 11.3113 43.5992 11.2994 43.6526 11.2808C43.7062 11.2608 43.7597 11.2262 43.8048 11.1836C43.8583 11.141 43.895 11.0905 43.9203 11.0399C43.9456 10.9854 43.9527 10.9308 43.9456 10.8683C43.933 10.6381 43.8794 10.4013 43.7808 10.1632C43.6823 9.92503 43.5498 9.68021 43.3682 9.4314C43.1949 9.17463 42.9766 8.94049 42.709 8.7263C42.4414 8.51205 42.1273 8.31781 41.7653 8.14219C41.4103 7.96657 41.0103 7.83886 40.5737 7.74838C40.1371 7.65923 39.6539 7.61539 39.1342 7.61539C38.4088 7.61539 37.7566 7.70847 37.1764 7.90004C36.5946 8.09034 36.0876 8.37506 35.6509 8.75687C35.2227 9.13873 34.8918 9.58974 34.665 10.1166C34.4382 10.6421 34.31 11.2422 34.2861 11.9154L34.2692 12.6631L34.2861 13.4108C34.3114 14.084 34.4382 14.684 34.665 15.2096C34.896 15.7165 35.2213 16.1728 35.6509 16.5507Z" fill="white"/>
<path d="M46.5187 17.3356H48.2005C48.2667 17.3356 48.3287 17.3237 48.3822 17.305C48.4399 17.2811 48.4893 17.2505 48.5344 17.2079C48.5794 17.1654 48.6175 17.1148 48.6372 17.0642C48.6625 17.0097 48.6695 16.9551 48.6695 16.8926V9.61636H52.8669V16.8913C52.8669 16.9538 52.8796 17.0124 52.8993 17.0629C52.9246 17.1175 52.957 17.164 53.0021 17.2066C53.0472 17.2492 53.1007 17.2851 53.1542 17.3037C53.2078 17.3237 53.2698 17.3343 53.3359 17.3343H55.0008C55.0754 17.3343 55.1374 17.3224 55.1952 17.3037C55.2529 17.2798 55.298 17.2492 55.3389 17.2066C55.3839 17.164 55.4219 17.1135 55.4417 17.0629C55.467 17.0084 55.474 16.9538 55.474 16.8913V8.06239C55.474 7.99186 55.4614 7.93334 55.4417 7.87882C55.4163 7.82424 55.3839 7.78167 55.3389 7.7431C55.298 7.70053 55.2529 7.66457 55.1952 7.64595C55.1374 7.622 55.0754 7.61539 55.0008 7.61539H46.5075C46.4413 7.61539 46.3793 7.62733 46.3258 7.64595C46.268 7.6699 46.2187 7.70053 46.1737 7.7431C46.1286 7.78167 46.0906 7.82424 46.0708 7.87882C46.0455 7.93334 46.0385 7.99186 46.0385 8.06239V16.8873C46.0385 16.9498 46.0511 17.0084 46.0708 17.0589C46.0962 17.1134 46.1286 17.16 46.1737 17.2026C46.2187 17.2452 46.2723 17.2811 46.3258 17.2997C46.3906 17.3237 46.4525 17.3356 46.5187 17.3356Z" fill="white"/>
<path d="M59.188 16.5973C59.6092 16.9711 60.1204 17.2518 60.7219 17.4381C61.3233 17.6244 62.0121 17.7188 62.791 17.7188C63.5614 17.7188 64.246 17.6257 64.8446 17.4381C65.4418 17.2518 65.9488 16.9711 66.3742 16.5973C66.7982 16.2234 67.1207 15.7791 67.3475 15.2615C67.5743 14.7439 67.7066 14.1559 67.7391 13.4933C67.7475 13.4188 67.7517 13.3137 67.756 13.174C67.7602 13.0383 67.7602 12.8707 67.7602 12.6671C67.7602 12.4649 67.7602 12.3013 67.756 12.1602C67.7517 12.0245 67.7475 11.9194 67.7391 11.8409C67.7066 11.1863 67.5743 10.6022 67.3433 10.0887C67.1123 9.57512 66.7827 9.13079 66.3545 8.75692C65.9263 8.37506 65.4151 8.09034 64.8207 7.9001C64.2277 7.70987 63.5502 7.61539 62.7924 7.61539C62.0262 7.61539 61.3458 7.70853 60.7473 7.9001C60.15 8.09034 59.6387 8.37506 59.2091 8.75692C58.781 9.13079 58.4499 9.57512 58.2204 10.0887C57.9894 10.6022 57.857 11.1863 57.8246 11.8409L57.8077 12.6671L57.8246 13.4933C57.857 14.1559 57.9894 14.7439 58.2161 15.2615C58.4415 15.7791 58.7668 16.2234 59.188 16.5973ZM60.5529 11.9433C60.5655 11.5455 60.6233 11.1956 60.7261 10.8923C60.829 10.5889 60.974 10.3348 61.167 10.1286C61.3571 9.91842 61.5881 9.75874 61.86 9.65365C62.1318 9.54856 62.4417 9.49398 62.7924 9.49398C63.1347 9.49398 63.4403 9.54856 63.7079 9.65365C63.9756 9.75874 64.2023 9.91842 64.3967 10.1286C64.5868 10.3348 64.7347 10.5876 64.8375 10.8923C64.9403 11.1969 64.9981 11.5469 65.0108 11.9433C65.0192 12.0059 65.0234 12.099 65.0277 12.2201C65.0319 12.3412 65.0319 12.4928 65.0319 12.6724C65.0319 12.8521 65.0319 13.0037 65.0277 13.1248C65.0234 13.2459 65.0192 13.339 65.0108 13.4015C64.9981 13.7993 64.9403 14.1492 64.8375 14.4526C64.7347 14.756 64.5897 15.01 64.3967 15.2162C64.2108 15.4225 63.984 15.5741 63.7206 15.6792C63.4572 15.7843 63.1431 15.8349 62.7966 15.8349C62.4459 15.8349 62.1375 15.7843 61.8642 15.6792C61.5924 15.5781 61.3614 15.4225 61.1712 15.2162C60.9811 15.01 60.8332 14.7572 60.7303 14.4526C60.6275 14.1492 60.5698 13.798 60.5571 13.4015L60.5402 12.6698L60.5486 12.3039L60.5529 11.9433Z" fill="white"/>
<path d="M78.6743 16.5148C79.0375 16.1104 79.3137 15.642 79.5065 15.1125C79.697 14.583 79.804 13.9909 79.8235 13.3364C79.832 13.2618 79.8363 13.1687 79.8406 13.0556C79.8448 12.9426 79.8448 12.8148 79.8448 12.6618C79.8448 12.5141 79.8448 12.3811 79.8406 12.268C79.8363 12.1549 79.832 12.0618 79.8235 11.9872C79.798 11.3207 79.6866 10.722 79.498 10.1925C79.3094 9.66299 79.032 9.20398 78.6785 8.81017C78.3232 8.41235 77.887 8.11296 77.3754 7.91478C76.8644 7.71654 76.2742 7.61539 75.6105 7.61539C74.909 7.61539 74.2994 7.73249 73.7754 7.96263C73.2514 8.19282 72.8148 8.53873 72.4641 8.99907V8.25135C72.4641 8.18882 72.4514 8.1303 72.4317 8.07973C72.4063 8.02521 72.3739 7.97863 72.3288 7.93606C72.2838 7.89349 72.2303 7.85753 72.1725 7.83891C72.1147 7.81496 72.0485 7.80829 71.9753 7.80829H70.3922C70.326 7.80829 70.264 7.8203 70.2104 7.83891C70.1527 7.86287 70.1034 7.89349 70.0583 7.93606C70.0133 7.97463 69.9752 8.0172 69.9555 8.07172C69.9302 8.1263 69.9231 8.18482 69.9231 8.25535V20.6312C69.9231 20.7017 69.9358 20.7603 69.9555 20.8148C69.9809 20.8694 70.0133 20.9119 70.0583 20.9505C70.1034 20.9931 70.157 21.029 70.2104 21.0476C70.2682 21.0716 70.326 21.0782 70.3922 21.0782H72.1162C72.1908 21.0782 72.2528 21.0663 72.3105 21.0476C72.3683 21.0277 72.4134 20.9931 72.4542 20.9505C72.4993 20.9119 72.5373 20.8694 72.557 20.8148C72.5824 20.7603 72.5894 20.7017 72.5894 20.6312V16.3871C72.9401 16.8315 73.3641 17.1614 73.8711 17.3835C74.3785 17.6057 74.9601 17.7148 75.619 17.7148C76.287 17.7148 76.8729 17.6137 77.3839 17.4155C77.8828 17.2106 78.3147 16.9113 78.6743 16.5148ZM73.1908 15.038C73.0007 14.8198 72.8528 14.579 72.75 14.3142C72.6472 14.0495 72.5894 13.7607 72.5767 13.4494C72.5683 13.3683 72.5641 13.2658 72.5598 13.1461C72.5556 13.025 72.5556 12.8813 72.5556 12.7217C72.5556 12.562 72.5556 12.4184 72.5598 12.3013C72.5641 12.1842 72.5683 12.0871 72.5767 12.0125C72.5894 11.6812 72.6472 11.3779 72.7457 11.0972C72.8444 10.8165 72.9852 10.5597 73.1697 10.3295C73.3556 10.0994 73.5866 9.92509 73.8669 9.81199C74.1473 9.69489 74.4771 9.64037 74.853 9.64037C75.5588 9.64037 76.0978 9.84655 76.4768 10.255C76.8558 10.6635 77.0627 11.2834 77.112 12.1043C77.1205 12.1669 77.1247 12.2441 77.129 12.3385C77.1333 12.4316 77.1333 12.5407 77.1333 12.6658C77.1333 12.7908 77.1333 12.8999 77.129 12.9931C77.1247 13.0862 77.1205 13.1647 77.112 13.2273C77.0669 14.0495 76.8571 14.6681 76.4768 15.0766C76.0966 15.485 75.5612 15.6912 74.853 15.6912C74.4892 15.6912 74.1686 15.6367 73.8924 15.5276C73.6162 15.4198 73.381 15.2562 73.1908 15.038Z" fill="white"/>
<path d="M81.4764 9.61108H84.6831V16.886C84.6831 16.9486 84.6959 17.0071 84.716 17.0577C84.7409 17.1122 84.7738 17.1587 84.8188 17.2013C84.8638 17.2439 84.9174 17.2798 84.9709 17.2985C85.0244 17.3171 85.0865 17.329 85.1522 17.329H86.7936C86.8678 17.329 86.9299 17.3171 86.9877 17.2985C87.0455 17.2798 87.0905 17.2439 87.1313 17.2013C87.1763 17.1587 87.2146 17.1082 87.2341 17.0577C87.2596 17.0031 87.2669 16.9486 87.2669 16.886V9.61108H90.4737C90.5485 9.61108 90.6106 9.59913 90.6684 9.58051C90.7262 9.5605 90.7712 9.52594 90.812 9.48336C90.857 9.44079 90.8947 9.39022 90.9148 9.3397C90.9397 9.28512 90.947 9.2306 90.947 9.16802V8.06244C90.947 7.99192 90.9342 7.93339 90.9148 7.87882C90.8892 7.8243 90.857 7.78173 90.812 7.74316C90.7712 7.70059 90.7262 7.66463 90.6684 7.64601C90.6106 7.62606 90.5485 7.61539 90.4737 7.61539H81.4691C81.4027 7.61539 81.3413 7.62739 81.2878 7.64601C81.2342 7.66596 81.1807 7.70059 81.1357 7.74316C81.09 7.78173 81.0523 7.8243 81.0328 7.87882C81.0073 7.93339 81 7.99192 81 8.06244V9.16802C81 9.2306 81.0128 9.28912 81.0328 9.3397C81.0578 9.39422 81.09 9.44079 81.1357 9.48336C81.1807 9.52594 81.2342 9.56184 81.2878 9.58051C81.3437 9.59913 81.41 9.61108 81.4764 9.61108Z" fill="white"/>
<path d="M36.9769 30.3905C37.167 30.1842 37.3107 29.9927 37.405 29.8144C37.4994 29.6361 37.5487 29.4711 37.5487 29.3235C37.5487 29.2689 37.536 29.2183 37.5163 29.1757C37.491 29.1332 37.4586 29.0946 37.4135 29.0626C37.3727 29.0321 37.3304 29.0081 37.2811 28.9922C37.2318 28.9762 37.1783 28.9682 37.1163 28.9682H35.3768C35.2979 28.9682 35.2289 28.9722 35.1754 28.9842C35.1219 28.9961 35.0768 29.0081 35.043 29.0267C35.0106 29.0387 34.9684 29.0653 34.9233 29.1052C34.8782 29.1438 34.8247 29.1984 34.7669 29.2689C34.5275 29.5576 34.2556 29.7718 33.95 29.9155C33.6443 30.0592 33.3021 30.1297 32.9274 30.1297C32.5978 30.1297 32.3006 30.0751 32.0414 29.962C31.7823 29.8489 31.5555 29.6813 31.3654 29.4551C31.1795 29.225 31.0401 28.9642 30.9414 28.6768C30.8428 28.3881 30.7851 28.0688 30.7724 27.7189V27.5712H37.3445C37.4192 27.5712 37.4854 27.5592 37.5417 27.5406C37.5994 27.5207 37.653 27.4861 37.698 27.4435C37.7431 27.4009 37.7811 27.3504 37.8009 27.2998C37.8262 27.2453 37.8332 27.1907 37.8332 27.1282V26.7384C37.8332 25.9906 37.7262 25.3175 37.5121 24.7214C37.298 24.1213 36.9755 23.5998 36.5473 23.1515C36.1261 22.7031 35.612 22.3652 35.0092 22.143C34.4077 21.9168 33.7105 21.8077 32.9274 21.8077C32.1612 21.8077 31.4809 21.9208 30.878 22.143C30.2766 22.3692 29.7611 22.7031 29.3245 23.1515C28.8963 23.5998 28.5737 24.1333 28.3596 24.744C28.1456 25.356 28.0385 26.0518 28.0385 26.8315L28.0554 27.2985C28.0808 28.0342 28.2075 28.6848 28.4343 29.2529C28.661 29.821 28.9907 30.304 29.4202 30.7017C29.8569 31.0996 30.3682 31.399 30.9541 31.5971C31.54 31.7954 32.2035 31.8965 32.9415 31.8965C33.4035 31.8965 33.8359 31.858 34.2444 31.7834C34.6486 31.7089 35.0275 31.5971 35.3782 31.4481C35.729 31.3005 36.0374 31.1369 36.3022 30.9612C36.5684 30.7763 36.7909 30.5887 36.9769 30.3905ZM30.764 25.9441C30.764 25.5782 30.8132 25.2469 30.9076 24.9555C31.002 24.6629 31.1471 24.4061 31.3358 24.1879C31.526 23.9617 31.757 23.794 32.0203 23.681C32.2838 23.5679 32.5852 23.5133 32.919 23.5133C33.2528 23.5133 33.5542 23.5679 33.8176 23.681C34.081 23.794 34.3078 23.9617 34.5021 24.1879C34.6993 24.4061 34.8486 24.6629 34.9472 24.9555C35.0458 25.2483 35.0951 25.5782 35.0951 25.9441V25.9826H30.7583V25.9441H30.764Z" fill="white"/>
<path d="M42.7799 24.3648C42.97 24.1666 43.2011 24.0149 43.4645 23.9164C43.7278 23.8153 44.0293 23.7688 44.3631 23.7688C44.6152 23.7688 44.842 23.7954 45.0476 23.8472C45.2532 23.9018 45.435 23.9803 45.5913 24.0854C45.7561 24.1905 45.904 24.3302 46.0364 24.5019C46.1688 24.6735 46.2843 24.8757 46.3829 25.1139C46.4153 25.1883 46.4491 25.2535 46.4815 25.3041C46.5139 25.3586 46.5477 25.3973 46.5801 25.4292C46.6125 25.4531 46.6547 25.4717 46.7082 25.4837C46.7618 25.4957 46.8238 25.5037 46.8984 25.5037H48.6633C48.7295 25.5037 48.7915 25.4917 48.8449 25.4731C48.8985 25.4531 48.952 25.4185 48.9971 25.376C49.0506 25.3334 49.0872 25.2828 49.1126 25.2323C49.1379 25.1777 49.145 25.1232 49.1379 25.0606C49.1253 24.8305 49.0717 24.5936 48.9731 24.3555C48.8788 24.1147 48.7421 23.8725 48.5605 23.6238C48.3872 23.3669 48.1688 23.1328 47.9013 22.9186C47.6337 22.7044 47.3195 22.5102 46.9576 22.3346C46.6026 22.1589 46.2026 22.0312 45.766 21.9407C45.3293 21.8516 44.8462 21.8077 44.3265 21.8077C43.6011 21.8077 42.9489 21.9008 42.3687 22.0924C41.7869 22.2826 41.2798 22.5674 40.8432 22.9492C40.415 23.331 40.0841 23.782 39.8573 24.3089C39.6305 24.8344 39.5023 25.4345 39.4784 26.1077L39.4615 26.8554L39.4784 27.6031C39.5037 28.2763 39.6305 28.8764 39.8573 29.4019C40.0841 29.9274 40.4136 30.3838 40.8432 30.7616C41.2798 31.1435 41.7869 31.4282 42.3687 31.6184C42.9503 31.8087 43.6011 31.9031 44.3265 31.9031C44.8631 31.9031 45.3491 31.8566 45.7942 31.7674C46.2392 31.6783 46.6393 31.5413 46.9984 31.363C47.3576 31.1834 47.666 30.9851 47.9308 30.7709C48.1942 30.5567 48.4126 30.3225 48.5816 30.0738C48.7548 29.817 48.8872 29.5709 48.9774 29.3341C49.0675 29.0959 49.121 28.8711 49.1337 28.6529C49.1421 28.5903 49.1337 28.5318 49.1084 28.4812C49.083 28.4307 49.0464 28.3801 48.9928 28.3375C48.9478 28.295 48.8943 28.2591 48.8407 28.2404C48.7872 28.2205 48.7252 28.2098 48.659 28.2098H46.8942C46.8195 28.2098 46.7575 28.2178 46.6998 28.2338C46.6421 28.2497 46.597 28.2723 46.5561 28.3043C46.5237 28.3349 46.49 28.3748 46.4618 28.4253C46.4336 28.4759 46.404 28.5344 46.3787 28.605C46.2801 28.8458 46.1646 29.0573 46.0364 29.2316C45.9082 29.4072 45.7645 29.5469 45.6082 29.652C45.4519 29.7531 45.266 29.8276 45.0603 29.8782C44.8546 29.9287 44.6194 29.9527 44.3631 29.9527C43.6786 29.9527 43.1504 29.7505 42.7884 29.3447C42.425 28.9403 42.2236 28.3322 42.1869 27.5219L42.17 26.9073L42.1869 26.2141C42.1996 25.8017 42.2574 25.4425 42.356 25.1391C42.4503 24.8171 42.594 24.5644 42.7799 24.3648Z" fill="white"/>
<path d="M60.004 22.6277C59.9632 22.5851 59.9181 22.5492 59.8603 22.5306C59.8025 22.5106 59.7406 22.5 59.666 22.5H50.6614C50.5951 22.5 50.5332 22.5119 50.4797 22.5306C50.4261 22.5505 50.3726 22.5851 50.3276 22.6277C50.2825 22.6663 50.2445 22.7089 50.2247 22.7634C50.1994 22.818 50.1923 22.8765 50.1923 22.947V24.0526C50.1923 24.1152 50.205 24.1737 50.2247 24.2243C50.2501 24.2788 50.2825 24.3254 50.3276 24.3679C50.3726 24.4105 50.4261 24.4465 50.4797 24.4651C50.5332 24.485 50.5951 24.4956 50.6614 24.4956H53.8685V31.7706C53.8685 31.8331 53.8812 31.8916 53.901 31.9422C53.9263 31.9967 53.9587 32.0433 54.0038 32.0859C54.0488 32.1284 54.1023 32.1644 54.1559 32.183C54.2094 32.203 54.2713 32.2136 54.3376 32.2136H55.9784C56.0531 32.2136 56.1151 32.2016 56.1728 32.183C56.2306 32.1631 56.2756 32.1284 56.3165 32.0859C56.3616 32.0433 56.3996 31.9927 56.4193 31.9422C56.4447 31.8876 56.4517 31.8331 56.4517 31.7706V24.497H59.6589C59.7336 24.497 59.7955 24.485 59.8533 24.4664C59.911 24.4478 59.9561 24.4118 59.9969 24.3693C60.042 24.3267 60.08 24.2761 60.0997 24.2256C60.1251 24.171 60.1322 24.1165 60.1322 24.054V22.9483C60.1322 22.8778 60.1194 22.8193 60.0997 22.7648C60.0871 22.7102 60.0505 22.6636 60.004 22.6277Z" fill="white"/>
<path d="M66.1184 32.2216C66.803 32.2216 67.4086 32.1511 67.9283 32.0154C68.4481 31.8797 68.889 31.6721 69.2439 31.4007C69.5988 31.128 69.8665 30.7861 70.0439 30.3763C70.2214 29.9678 70.3115 29.4928 70.3115 28.9514C70.3115 28.4218 70.2256 27.9509 70.0566 27.5344C69.8834 27.122 69.6284 26.7628 69.2862 26.4634C68.9439 26.164 68.5199 25.9418 68.0199 25.7902C67.5213 25.6385 66.9396 25.564 66.2804 25.564H64.2437V22.947C64.2437 22.8765 64.231 22.818 64.2113 22.7634C64.1859 22.7089 64.1536 22.6663 64.1085 22.6277C64.0677 22.5851 64.0226 22.5492 63.9648 22.5306C63.9071 22.5067 63.8451 22.5 63.7705 22.5H62.0845C62.0183 22.5 61.9563 22.5119 61.9028 22.5306C61.845 22.5545 61.7957 22.5851 61.7507 22.6277C61.7056 22.6663 61.6676 22.7089 61.6478 22.7634C61.6225 22.818 61.6154 22.8765 61.6154 22.947V31.7719C61.6154 31.8344 61.6281 31.893 61.6478 31.9435C61.6732 31.9981 61.7056 32.0446 61.7507 32.0872C61.7957 32.1298 61.8493 32.1657 61.9028 32.1844C61.9606 32.2083 62.0183 32.2149 62.0845 32.2149H66.1213V32.2216H66.1184ZM64.2015 27.3615H66.0649C66.386 27.3615 66.6663 27.3921 66.9016 27.4586C67.1368 27.5251 67.3255 27.6223 67.4706 27.754C67.6227 27.887 67.734 28.0493 67.8129 28.2489C67.8875 28.4471 67.9283 28.6813 67.9283 28.95C67.9283 29.2188 67.8917 29.4489 67.8213 29.6352C67.7509 29.8215 67.6396 29.9785 67.496 30.0876C67.3523 30.2007 67.1579 30.2818 66.9227 30.3403C66.6875 30.3989 66.4029 30.4255 66.0734 30.4255H64.2015V27.3615Z" fill="white"/>
<path d="M85.779 30.2019C85.824 30.1594 85.8624 30.1089 85.8818 30.0583C85.9074 30.0037 85.9141 29.9492 85.9141 29.8867C85.9141 29.8241 85.9019 29.7656 85.8818 29.715C85.8569 29.6605 85.824 29.6139 85.779 29.5713L83.0085 26.9703L85.779 24.3533C85.824 24.3107 85.8624 24.2602 85.8818 24.2096C85.9074 24.1551 85.9141 24.1005 85.9141 24.038C85.9141 23.9675 85.9019 23.9089 85.8818 23.8544C85.8569 23.7998 85.824 23.7572 85.779 23.7187L84.6493 22.6517C84.5957 22.6011 84.5428 22.5665 84.485 22.5386C84.4272 22.5146 84.3694 22.5 84.3116 22.5C84.2538 22.5 84.196 22.5119 84.1382 22.5386C84.0804 22.5625 84.0269 22.6011 83.9733 22.6517L81.2028 25.2686L78.4322 22.6357C78.3872 22.5931 78.3337 22.5572 78.2801 22.5386C78.2266 22.5186 78.1645 22.5079 78.0988 22.5079C78.0325 22.5079 77.9705 22.52 77.9169 22.5386C77.8634 22.5585 77.8098 22.5931 77.7648 22.6357L76.6351 23.7027C76.59 23.7572 76.5523 23.8118 76.5322 23.8663C76.5067 23.9209 76.5 23.9714 76.5 24.022C76.5 24.0726 76.5128 24.1231 76.5322 24.1777C76.5578 24.2322 76.59 24.2868 76.6351 24.3413L79.4056 26.9743L78.021 28.2675L76.6363 29.5686C76.5913 29.6232 76.5535 29.6777 76.5335 29.7323C76.5085 29.7868 76.5012 29.8374 76.5012 29.888C76.5012 29.9385 76.514 29.9891 76.5335 30.0437C76.559 30.0982 76.5913 30.1528 76.6363 30.2073L77.766 31.2743C77.8111 31.3169 77.8646 31.3528 77.9181 31.3714C77.9717 31.3914 78.0337 31.402 78.1 31.402C78.1664 31.402 78.2284 31.3901 78.2819 31.3714C78.3355 31.3515 78.389 31.3169 78.434 31.2743L81.2046 28.6573L83.9746 31.2743C84.0324 31.3169 84.0902 31.3528 84.148 31.3714C84.2057 31.3954 84.2593 31.402 84.3128 31.402C84.3664 31.402 84.4199 31.3901 84.4777 31.3714C84.5355 31.3515 84.5933 31.3169 84.6511 31.2743L85.2157 30.7408L85.779 30.2019Z" fill="white"/>
<path d="M97.2009 30.2073C97.2459 30.1647 97.2843 30.1142 97.3037 30.0636C97.3293 30.009 97.336 29.9545 97.336 29.892C97.336 29.8295 97.3232 29.7709 97.3037 29.7204C97.2782 29.6658 97.2459 29.6192 97.2009 29.5767L95.8162 28.2715L94.4315 26.9703L97.2021 24.3533C97.2471 24.3107 97.2855 24.2602 97.3049 24.2096C97.3305 24.1551 97.3378 24.1005 97.3378 24.038C97.3378 23.9675 97.325 23.9089 97.3049 23.8544C97.28 23.7998 97.2471 23.7572 97.2021 23.7187L96.073 22.6517C96.0194 22.6011 95.9659 22.5665 95.9081 22.5386C95.8503 22.5146 95.7925 22.5 95.7347 22.5C95.6769 22.5 95.6191 22.5119 95.5613 22.5386C95.5035 22.5625 95.45 22.6011 95.3964 22.6517L92.6259 25.2686L89.8553 22.6357C89.8103 22.5931 89.7568 22.5572 89.7032 22.5386C89.6497 22.5186 89.5882 22.508 89.5219 22.508C89.4556 22.508 89.3936 22.52 89.34 22.5386C89.2865 22.5585 89.2329 22.5931 89.1879 22.6357L88.0582 23.7027C88.0131 23.7572 87.9754 23.8118 87.9553 23.8663C87.9347 23.9209 87.9231 23.9715 87.9231 24.022C87.9231 24.0726 87.9359 24.1232 87.9553 24.1777C87.9766 24.2323 88.0131 24.2868 88.0582 24.3414L90.8287 26.9743L88.0582 29.5753C88.0131 29.6299 87.9754 29.6844 87.9553 29.739C87.9304 29.7935 87.9231 29.8441 87.9231 29.8947C87.9231 29.9452 87.9359 29.9958 87.9553 30.0503C87.9809 30.1049 88.0131 30.1594 88.0582 30.214L89.1879 31.281C89.2329 31.3235 89.2865 31.3595 89.34 31.3781C89.3936 31.3981 89.4556 31.4087 89.5219 31.4087C89.5882 31.4087 89.6497 31.3967 89.7032 31.3781C89.7568 31.3582 89.8103 31.3235 89.8553 31.281L92.6259 28.664L95.3964 31.281C95.4542 31.3235 95.512 31.3595 95.5698 31.3781C95.6276 31.3967 95.6812 31.4087 95.7347 31.4087C95.7882 31.4087 95.8418 31.3967 95.8996 31.3781C95.9574 31.3595 96.0152 31.3235 96.073 31.281L96.6375 30.7475L97.2009 30.2073Z" fill="white"/>
<path d="M32.6068 38.5765C32.6068 38.506 32.5941 38.4474 32.5744 38.3929C32.549 38.3383 32.5167 38.2957 32.4716 38.2571L31.3419 37.1901C31.2884 37.1396 31.2349 37.105 31.1771 37.077C31.1194 37.0531 31.0617 37.0385 31.0039 37.0385C30.9461 37.0385 30.8884 37.0504 30.8307 37.077C30.7729 37.101 30.7194 37.1396 30.6659 37.1901L27.8953 39.8071L25.1248 37.1742C25.0797 37.1316 25.0262 37.0956 24.9727 37.077C24.9191 37.0571 24.8572 37.0465 24.791 37.0465C24.7248 37.0465 24.6628 37.0584 24.6093 37.077C24.5558 37.0956 24.5022 37.1316 24.4571 37.1742L23.3276 38.2412C23.2825 38.2957 23.2445 38.3503 23.2247 38.4048C23.2036 38.4594 23.1923 38.51 23.1923 38.5605C23.1923 38.6111 23.205 38.6616 23.2247 38.7161C23.2459 38.7707 23.2825 38.8252 23.3276 38.8798L26.0981 41.5128L23.3276 44.1138C23.2825 44.1684 23.2445 44.2229 23.2247 44.2775C23.2036 44.332 23.1923 44.3825 23.1923 44.4331C23.1923 44.4837 23.205 44.5342 23.2247 44.5888C23.2459 44.6433 23.2825 44.6979 23.3276 44.7524L24.4571 45.8194C24.5022 45.862 24.5558 45.898 24.6093 45.9166C24.667 45.9405 24.7248 45.9472 24.791 45.9472C24.8572 45.9472 24.9191 45.9352 24.9727 45.9166C25.0304 45.8926 25.0797 45.862 25.1248 45.8194L27.8953 43.2024L30.6659 45.8194C30.7236 45.862 30.7814 45.898 30.8391 45.9166C30.8969 45.9405 30.9504 45.9472 31.0039 45.9472C31.0574 45.9472 31.1109 45.9352 31.1687 45.9166C31.2265 45.8926 31.2842 45.862 31.3419 45.8194L32.4716 44.7524C32.5167 44.7098 32.5547 44.6593 32.5744 44.6087C32.5955 44.5582 32.6068 44.4997 32.6068 44.4371C32.6068 44.3746 32.5941 44.316 32.5744 44.2654C32.5533 44.2149 32.5167 44.1644 32.4716 44.1218L31.087 42.81L29.7024 41.5088L32.473 38.8918C32.5181 38.8492 32.5561 38.7986 32.5758 38.7481C32.5941 38.6975 32.6068 38.639 32.6068 38.5765Z" fill="white"/>
<path d="M43.6837 38.5765C43.6837 38.506 43.671 38.4474 43.6513 38.3929C43.6259 38.3383 43.5935 38.2957 43.5484 38.2571L42.4188 37.1901C42.3653 37.1396 42.3118 37.105 42.254 37.077C42.1963 37.0531 42.1386 37.0385 42.0808 37.0385C42.023 37.0385 41.9653 37.0504 41.9076 37.077C41.8498 37.101 41.7963 37.1396 41.7428 37.1901L38.9722 39.8071L36.2017 37.1742C36.1566 37.1316 36.1031 37.0956 36.0496 37.077C35.9918 37.0531 35.9341 37.0465 35.8679 37.0465C35.8017 37.0465 35.7397 37.0584 35.6862 37.077C35.6284 37.101 35.5791 37.1316 35.534 37.1742L34.4044 38.2412C34.3594 38.2957 34.3214 38.3503 34.3016 38.4048C34.2763 38.4594 34.2692 38.51 34.2692 38.5605C34.2692 38.6111 34.2819 38.6616 34.3016 38.7161C34.327 38.7707 34.3594 38.8252 34.4044 38.8798L37.175 41.5128L34.4044 44.1138C34.3594 44.1684 34.3214 44.2229 34.3016 44.2775C34.2763 44.332 34.2692 44.3825 34.2692 44.4331C34.2692 44.4837 34.2819 44.5342 34.3016 44.5888C34.327 44.6433 34.3594 44.6979 34.4044 44.7524L35.534 45.8194C35.5791 45.862 35.6327 45.898 35.6862 45.9166C35.7439 45.9405 35.8017 45.9472 35.8679 45.9472C35.9341 45.9472 35.9961 45.9352 36.0496 45.9166C36.1073 45.8926 36.1566 45.862 36.2017 45.8194L38.9722 43.2024L41.7428 45.8194C41.8005 45.862 41.8582 45.898 41.916 45.9166C41.9738 45.9405 42.0273 45.9472 42.0808 45.9472C42.1343 45.9472 42.1878 45.9352 42.2456 45.9166C42.3033 45.8926 42.3611 45.862 42.4188 45.8194L43.5484 44.7524C43.5935 44.7098 43.6315 44.6593 43.6513 44.6087C43.6766 44.5542 43.6837 44.4997 43.6837 44.4371C43.6837 44.3746 43.671 44.316 43.6513 44.2654C43.6259 44.2109 43.5935 44.1644 43.5484 44.1218L40.7779 41.5208L43.5484 38.9038C43.5935 38.8612 43.6315 38.8106 43.6513 38.7601C43.671 38.6975 43.6837 38.639 43.6837 38.5765Z" fill="white"/>
<path d="M53.5107 38.9033C53.7009 38.705 53.9319 38.5534 54.1953 38.4549C54.4587 38.3578 54.7601 38.3073 55.0939 38.3073C55.346 38.3073 55.5728 38.3338 55.7784 38.3858C55.9841 38.4403 56.1658 38.5188 56.3221 38.6239C56.4869 38.729 56.6348 38.8687 56.7672 39.0403C56.8996 39.212 57.0151 39.4142 57.1137 39.6523C57.1461 39.7269 57.1799 39.7921 57.2123 39.8426C57.2447 39.8972 57.2785 39.9357 57.3109 39.9677C57.3433 39.9916 57.3856 40.0103 57.439 40.0222C57.4926 40.0342 57.5546 40.0422 57.6292 40.0422H59.3941C59.4603 40.0422 59.5223 40.0302 59.5757 40.0116C59.6335 39.9876 59.6828 39.957 59.7279 39.9144C59.7814 39.8719 59.8181 39.8213 59.8434 39.7708C59.8687 39.7162 59.8758 39.6617 59.8687 39.5991C59.8561 39.369 59.8025 39.1321 59.7039 38.894C59.6096 38.6532 59.4729 38.411 59.2913 38.1622C59.118 37.9055 58.8997 37.6713 58.6321 37.4571C58.3645 37.2429 58.0504 37.0486 57.6884 36.873C57.3334 36.6974 56.9334 36.5697 56.4968 36.4792C56.0602 36.3941 55.577 36.3462 55.0573 36.3462C54.3319 36.3462 53.6797 36.4393 53.0995 36.6309C52.5177 36.8212 52.0107 37.1059 51.5741 37.4877C51.1458 37.8696 50.8149 38.3206 50.5881 38.8474C50.3613 39.373 50.2331 39.973 50.2092 40.6462L50.1923 41.3939L50.2092 42.1416C50.2345 42.8148 50.3613 43.4149 50.5881 43.9404C50.8149 44.4659 51.1444 44.9223 51.5741 45.3001C52.0107 45.6819 52.5177 45.9667 53.0995 46.1569C53.6812 46.3472 54.3319 46.4416 55.0573 46.4416C55.5939 46.4416 56.0799 46.3951 56.525 46.3059C56.97 46.2168 57.3701 46.0797 57.7292 45.9015C58.0842 45.7218 58.3969 45.5236 58.6617 45.3094C58.925 45.0952 59.1434 44.8611 59.3124 44.6123C59.4856 44.3555 59.618 44.1093 59.7082 43.8725C59.7983 43.6344 59.8518 43.4095 59.8645 43.1913C59.873 43.1288 59.8645 43.0703 59.8392 43.0197C59.8138 42.9651 59.7772 42.9186 59.7236 42.876C59.6786 42.8335 59.6251 42.7975 59.5715 42.7789C59.5138 42.7549 59.4561 42.7483 59.3898 42.7483H57.625C57.5503 42.7483 57.4884 42.7563 57.4306 42.7722C57.3729 42.7882 57.3278 42.8109 57.287 42.8428C57.2545 42.8734 57.2208 42.9133 57.1926 42.9639C57.1644 43.0144 57.1349 43.073 57.1095 43.1434C57.0109 43.3842 56.8954 43.5958 56.7672 43.7701C56.639 43.9457 56.4954 44.0854 56.339 44.1905C56.1827 44.2916 55.9968 44.3661 55.7911 44.4167C55.5855 44.4673 55.3502 44.4912 55.0939 44.4912C54.4094 44.4912 53.8812 44.289 53.5192 43.8832C53.1558 43.4787 52.9544 42.8707 52.9177 42.0605L52.9009 41.4458L52.9177 40.7526C52.9305 40.3402 52.9882 39.981 53.0868 39.6776C53.1854 39.3557 53.3262 39.1029 53.5107 38.9033Z" fill="white"/>
<path d="M71.2619 36.4739C71.2211 36.4313 71.176 36.3954 71.1183 36.3768C71.0605 36.3528 70.9985 36.3462 70.9239 36.3462H62.4306C62.3644 36.3462 62.3024 36.3582 62.2489 36.3768C62.1911 36.4007 62.1418 36.4313 62.0968 36.4739C62.0517 36.5125 62.0137 36.5551 61.9939 36.6096C61.9686 36.6642 61.9615 36.7227 61.9615 36.7932V45.6181C61.9615 45.6806 61.9742 45.7391 61.9939 45.7897C62.0193 45.8443 62.0517 45.8908 62.0968 45.9334C62.1418 45.976 62.1954 46.0119 62.2489 46.0305C62.3067 46.0545 62.3644 46.0611 62.4306 46.0611H64.1123C64.1785 46.0611 64.2405 46.0491 64.294 46.0305C64.3518 46.0066 64.4011 45.976 64.4461 45.9334C64.4912 45.8908 64.5293 45.8403 64.549 45.7897C64.5743 45.7352 64.5814 45.6806 64.5814 45.6181V38.3432H68.7787V45.6181C68.7787 45.6806 68.7914 45.7391 68.8111 45.7897C68.8308 45.8403 68.8688 45.8908 68.9139 45.9334C68.959 45.976 69.0125 46.0119 69.0661 46.0305C69.1238 46.0545 69.1815 46.0611 69.2477 46.0611H70.914C70.9887 46.0611 71.0506 46.0491 71.1084 46.0305C71.1661 46.0066 71.2112 45.976 71.252 45.9334C71.2971 45.8908 71.3351 45.8403 71.3549 45.7897C71.3802 45.7352 71.3873 45.6806 71.3873 45.6181V36.7892C71.3873 36.7187 71.3746 36.6602 71.3549 36.6056C71.3436 36.5564 71.3112 36.5098 71.2619 36.4739Z" fill="white"/>
<path d="M78.3709 36.3462C77.8957 36.3462 77.4595 36.3847 77.0592 36.4592C76.6595 36.5337 76.2999 36.6455 75.9751 36.7945C75.6538 36.9382 75.3691 37.0938 75.1294 37.2655C74.8903 37.4371 74.6889 37.6234 74.5326 37.8229C74.3805 38.0172 74.2649 38.2008 74.1858 38.3764C74.1073 38.552 74.0623 38.7157 74.0581 38.8713C74.0581 38.9338 74.0666 38.9884 74.086 39.0389C74.1055 39.0895 74.1353 39.1321 74.1761 39.172C74.2211 39.2106 74.2704 39.2385 74.3239 39.2571C74.3775 39.2771 74.431 39.2838 74.4931 39.2838H76.0353C76.1101 39.2838 76.1679 39.2638 76.2172 39.2292C76.2665 39.1906 76.303 39.1361 76.3328 39.0616C76.3577 39.0376 76.3985 38.999 76.452 38.9485C76.5056 38.8979 76.5719 38.8354 76.6498 38.7622C76.7355 38.6811 76.8311 38.6026 76.9424 38.5241C77.0537 38.4456 77.1736 38.3684 77.3056 38.2939C77.4382 38.2194 77.5903 38.1609 77.768 38.1263C77.945 38.0917 78.1385 38.0717 78.3581 38.0717C78.6751 38.0717 78.9482 38.1063 79.1776 38.1728C79.4088 38.2394 79.5992 38.3445 79.7428 38.4802C79.8863 38.6159 79.9977 38.7875 80.0676 38.9898C80.1382 39.1919 80.1747 39.4261 80.1747 39.6949V40.0847L77.4619 40.4585C76.8268 40.5517 76.2622 40.6887 75.7633 40.863C75.2651 41.0426 74.8356 41.2608 74.4736 41.5216C74.1098 41.7824 73.8378 42.0857 73.6565 42.4289C73.4747 42.7722 73.3846 43.1527 73.3846 43.5771C73.3846 43.8379 73.4254 44.0907 73.5043 44.3288C73.5832 44.5696 73.7015 44.7958 73.8591 45.014C74.024 45.2322 74.2187 45.4264 74.4365 45.6021C74.6549 45.7777 74.9074 45.9294 75.183 46.0611C75.4677 46.1861 75.7652 46.2793 76.0736 46.3418C76.3833 46.4043 76.7088 46.4349 77.0422 46.4349C77.4382 46.4349 77.8014 46.4043 78.1312 46.3418C78.4609 46.2793 78.7578 46.1861 79.0212 46.0611C79.2847 45.928 79.5201 45.7804 79.7227 45.6167C79.9241 45.4531 80.1017 45.2694 80.2465 45.0712V45.803C80.2465 45.8655 80.2593 45.924 80.2794 45.9746C80.3043 46.0292 80.3372 46.0757 80.3822 46.1183C80.4272 46.1609 80.4807 46.1968 80.5343 46.2154C80.5921 46.2394 80.6499 46.246 80.7156 46.246H82.357C82.4312 46.246 82.4933 46.234 82.551 46.2154C82.6088 46.1915 82.6539 46.1609 82.6946 46.1183C82.7396 46.0757 82.778 46.0252 82.7974 45.9746C82.823 45.9201 82.8303 45.8655 82.8303 45.803V39.9304C82.8303 39.3928 82.7397 38.9099 82.5626 38.4775C82.385 38.0451 82.1173 37.6633 81.7626 37.332C81.4073 37.0007 80.9455 36.7559 80.3779 36.5883C79.8212 36.4286 79.1496 36.3462 78.3709 36.3462ZM80.1875 42.0285C80.1875 42.4529 80.1297 42.8267 80.0141 43.15C79.8991 43.4734 79.7257 43.7501 79.4945 43.9723C79.2634 44.1945 79.0005 44.3661 78.703 44.4792C78.4062 44.5922 78.0764 44.6468 77.7144 44.6468C77.4705 44.6468 77.2441 44.6202 77.03 44.5683C76.8158 44.5178 76.6254 44.4353 76.4441 44.3301C76.2707 44.217 76.1424 44.0854 76.0566 43.9297C75.9708 43.774 75.9282 43.5944 75.9282 43.3962C75.9282 43.0303 76.1186 42.727 76.4971 42.4848C76.8761 42.244 77.4455 42.0684 78.2042 41.9553L80.1832 41.66V42.0298H80.1875V42.0285Z" fill="white"/>
<path d="M94.2735 36.4739C94.2327 36.4313 94.1871 36.3954 94.1299 36.3768C94.0721 36.3528 94.0101 36.3462 93.9352 36.3462H84.9306C84.8643 36.3462 84.8022 36.3582 84.7487 36.3768C84.6915 36.4007 84.6422 36.4313 84.5966 36.4739C84.5516 36.5125 84.5138 36.5551 84.4938 36.6096C84.4688 36.6642 84.4615 36.7227 84.4615 36.7932V37.8988C84.4615 37.9613 84.4743 38.0199 84.4938 38.0704C84.5193 38.125 84.5516 38.1716 84.5966 38.2141C84.6422 38.2567 84.6951 38.2926 84.7487 38.3112C84.8065 38.3352 84.8643 38.3418 84.9306 38.3418H88.138V45.6167C88.138 45.6793 88.1507 45.7378 88.1702 45.7884C88.1958 45.8429 88.228 45.8895 88.273 45.9321C88.318 45.9747 88.3716 46.0106 88.4251 46.0292C88.4829 46.0531 88.5407 46.0598 88.607 46.0598H90.2478C90.3227 46.0598 90.3841 46.0478 90.4419 46.0292C90.4997 46.0052 90.5447 45.9747 90.5861 45.9321C90.6311 45.8895 90.6688 45.8389 90.6889 45.7884C90.7138 45.7338 90.7211 45.6793 90.7211 45.6167V38.3432H93.9279C94.0027 38.3432 94.0648 38.3312 94.1226 38.3126C94.1804 38.2886 94.2254 38.258 94.2662 38.2155C94.3112 38.1729 94.3495 38.1223 94.369 38.0717C94.3946 38.0172 94.4012 37.9626 94.4012 37.9001V36.7945C94.4012 36.724 94.3891 36.6655 94.369 36.6109C94.3495 36.5564 94.3185 36.5098 94.2735 36.4739Z" fill="white"/>
<path d="M103.897 40.3096C103.554 40.0103 103.131 39.7881 102.631 39.6364C102.128 39.4887 101.55 39.4102 100.891 39.4102H98.8547V36.7932C98.8547 36.7227 98.8419 36.6642 98.8219 36.6096C98.7969 36.5551 98.7647 36.5125 98.719 36.4739C98.6783 36.4314 98.6333 36.3954 98.5755 36.3768C98.5177 36.3528 98.4562 36.3462 98.3814 36.3462H96.6998C96.6335 36.3462 96.5715 36.3582 96.5179 36.3768C96.4644 36.3954 96.4109 36.4314 96.3658 36.4739C96.3208 36.5125 96.2825 36.5551 96.263 36.6096C96.2375 36.6642 96.2308 36.7227 96.2308 36.7932V45.6181C96.2308 45.6806 96.2429 45.7392 96.263 45.7898C96.288 45.8443 96.3208 45.8908 96.3658 45.9334C96.4109 45.976 96.4644 46.0119 96.5179 46.0305C96.5757 46.0545 96.6335 46.0611 96.6998 46.0611H100.739C101.424 46.0611 102.029 45.9906 102.549 45.8549C103.069 45.7192 103.509 45.5116 103.865 45.2403C104.219 44.9675 104.487 44.6256 104.665 44.2158C104.842 43.8073 104.932 43.3324 104.932 42.7909C104.932 42.2614 104.846 41.7904 104.678 41.3739C104.507 40.9549 104.238 40.605 103.897 40.3096ZM102.094 43.9351C101.95 44.0482 101.756 44.1293 101.521 44.1879C101.282 44.2424 101.001 44.273 100.671 44.273H98.8079V41.2036H100.671C100.993 41.2036 101.273 41.2343 101.508 41.3008C101.743 41.3673 101.932 41.4644 102.077 41.5961C102.229 41.7292 102.341 41.8915 102.419 42.0911C102.494 42.2893 102.535 42.5235 102.535 42.7922C102.535 43.061 102.498 43.2911 102.428 43.4774C102.346 43.6703 102.239 43.822 102.094 43.9351Z" fill="white"/>
<g clip-path="url(#clip0_476_181)">
<rect y="60.0148" width="124.615" height="20.7692" rx="1.38462" transform="rotate(-5 0 60.0148)" fill="#FFD400"/>
<path d="M16.3593 71.9965C15.7749 72.0476 15.2369 71.9681 14.7452 71.758C14.2531 71.5424 13.8536 71.2224 13.5469 70.798C13.2396 70.3681 13.0616 69.8746 13.0129 69.3176C12.9641 68.7605 13.054 68.2463 13.2824 67.7751C13.5103 67.2984 13.8482 66.9139 14.2959 66.6216C14.7431 66.3238 15.2589 66.1493 15.8432 66.0982C16.4276 66.0471 16.9659 66.1293 17.458 66.3449C17.9497 66.555 18.3489 66.8723 18.6557 67.2967C18.9625 67.7212 19.1405 68.2146 19.1897 68.7772C19.2389 69.3397 19.1493 69.8566 18.9209 70.3278C18.6924 70.7991 18.3546 71.1836 17.9074 71.4813C17.4597 71.7737 16.9436 71.9454 16.3593 71.9965ZM16.2776 71.0626C16.6599 71.0292 16.9965 70.9144 17.2876 70.7183C17.5781 70.5168 17.7974 70.2555 17.9454 69.9344C18.0929 69.6078 18.15 69.2533 18.1165 68.871C18.0831 68.4888 17.9656 68.1523 17.7641 67.8618C17.5621 67.5658 17.3007 67.3465 16.9801 67.204C16.659 67.0559 16.3072 66.9987 15.925 67.0321C15.5427 67.0656 15.2062 67.183 14.9157 67.3846C14.6247 67.5806 14.4054 67.8419 14.2579 68.1685C14.1098 68.4897 14.0526 68.8414 14.086 69.2237C14.1195 69.606 14.2372 69.9451 14.4392 70.2411C14.6407 70.5317 14.902 70.751 15.2232 70.899C15.5438 71.0415 15.8953 71.0961 16.2776 71.0626Z" fill="#292F36"/>
<path d="M26.0309 65.2895L26.5326 71.0239L25.4676 71.1171L25.2526 68.6595L22.2871 68.9189L22.5021 71.3765L21.4371 71.4697L20.9354 65.7353L22.0004 65.6421L22.2075 68.0096L25.1731 67.7501L24.9659 65.3826L26.0309 65.2895Z" fill="#292F36"/>
<path d="M33.3016 64.6534L33.8033 70.3878L32.7547 70.4795L32.3318 65.6462L30.0708 65.844L30.1471 67.2819C30.19 68.0872 30.1816 68.7455 30.1218 69.2571C30.0615 69.7631 29.9281 70.1573 29.7217 70.4395C29.5147 70.7162 29.2092 70.8723 28.8051 70.9076C28.6631 70.9201 28.4668 70.9097 28.2163 70.8766L28.209 69.9444C28.2819 69.9601 28.3648 69.9638 28.4576 69.9557C28.7908 69.9266 29.0084 69.7094 29.1106 69.3043C29.2177 68.8931 29.2503 68.2602 29.2086 67.4053L29.0826 65.0225L33.3016 64.6534Z" fill="#292F36"/>
<path d="M39.9207 68.5153L37.0535 68.7662L36.6043 70.1427L35.5066 70.2388L37.5854 64.2786L38.634 64.1868L41.7244 69.6948L40.6102 69.7923L39.9207 68.5153ZM39.4953 67.7106L38.1946 65.2984L37.3408 67.8991L39.4953 67.7106Z" fill="#292F36"/>
<path d="M42.9294 63.811L43.978 63.7193L44.3342 67.7907L47.0582 63.4498L48.0495 63.3631L48.5512 69.0975L47.5026 69.1893L47.1471 65.126L44.4224 69.4588L43.4311 69.5455L42.9294 63.811ZM45.4435 63.2031C44.9519 63.2461 44.5717 63.1776 44.3028 62.9975C44.0394 62.8169 43.888 62.533 43.8486 62.1457L44.5941 62.0805C44.6172 62.2821 44.6964 62.432 44.8315 62.5302C44.9667 62.6285 45.1544 62.6671 45.3947 62.646C45.6296 62.6255 45.8077 62.5549 45.9293 62.4342C46.0562 62.313 46.1136 62.1512 46.1014 61.9486L46.8387 61.8841C46.8667 62.2669 46.7614 62.5733 46.5229 62.8032C46.2893 63.0273 45.9295 63.1606 45.4435 63.2031Z" fill="#292F36"/>
<path d="M55.572 62.705L56.0737 68.4394L55.0087 68.5326L54.7937 66.075L51.8281 66.3344L52.0432 68.792L50.9782 68.8852L50.4765 63.1507L51.5415 63.0576L51.7486 65.4251L54.7141 65.1656L54.507 62.7981L55.572 62.705Z" fill="#292F36"/>
<path d="M57.9127 65.5544L60.1655 65.3573L60.24 66.2093L57.9872 66.4064L57.9127 65.5544Z" fill="#292F36"/>
<path d="M67.7402 67.4187L67.3994 63.6183L65.7905 66.9289L65.3153 66.9705L63.1602 64.0387L63.4885 67.7907L62.4809 67.8788L61.9792 62.1444L62.8557 62.0677L65.4568 65.6621L67.3696 61.6728L68.2379 61.5968L68.756 67.3298L67.7402 67.4187Z" fill="#292F36"/>
<path d="M74.865 65.4581L71.9977 65.7089L71.5486 67.0855L70.4509 67.1816L72.5297 61.2213L73.5782 61.1296L76.6686 66.6376L75.5545 66.735L74.865 65.4581ZM74.4396 64.6533L73.1389 62.2412L72.2851 64.8418L74.4396 64.6533Z" fill="#292F36"/>
<path d="M80.2248 60.5481C80.7218 60.5046 81.1604 60.5488 81.5407 60.6806C81.9264 60.812 82.2309 61.022 82.4543 61.3106C82.6777 61.5992 82.8077 61.9538 82.8445 62.3743C82.8808 62.7894 82.8143 63.1612 82.6449 63.4897C82.4751 63.8127 82.2116 64.0724 81.8546 64.2688C81.503 64.4646 81.0787 64.5843 80.5817 64.6278L79.2874 64.741L79.4322 66.3958L78.3672 66.489L77.8655 60.7545L80.2248 60.5481ZM80.4538 63.7309C80.918 63.6903 81.2616 63.5612 81.4847 63.3436C81.7078 63.1259 81.8034 62.8342 81.7714 62.4682C81.7393 62.1023 81.5946 61.8316 81.3371 61.656C81.0796 61.4804 80.7187 61.4129 80.2545 61.4535L79.0093 61.5625L79.2086 63.8399L80.4538 63.7309Z" fill="#292F36"/>
<path d="M88.3915 64.2747L85.5242 64.5255L85.0751 65.9021L83.9774 65.9981L86.0562 60.0379L87.1048 59.9462L90.1951 65.4542L89.081 65.5516L88.3915 64.2747ZM87.9661 63.4699L86.6654 61.0577L85.8116 63.6584L87.9661 63.4699Z" fill="#292F36"/>
<path d="M98.1158 61.8638C98.1817 62.6174 97.9717 63.2357 97.4856 63.7184C96.9995 64.2012 96.2748 64.504 95.3115 64.6268L95.3646 65.233L94.3815 65.319L94.3285 64.7128C93.3575 64.7482 92.5883 64.5734 92.0208 64.1883C91.4587 63.8027 91.1448 63.2331 91.0788 62.4794C91.0129 61.7257 91.2232 61.1103 91.7097 60.6329C92.2013 60.1497 92.9282 59.8412 93.8906 59.7075L93.8397 59.1258L94.8227 59.0398L94.8736 59.6215C95.8446 59.586 96.6113 59.7638 97.1738 60.1549C97.7359 60.5405 98.0499 61.1101 98.1158 61.8638ZM95.2384 63.7912C95.8895 63.6847 96.3721 63.4774 96.6864 63.1693C97.0001 62.8556 97.135 62.4476 97.0911 61.9452C97.0471 61.4427 96.8409 61.0673 96.4725 60.8188C96.1095 60.5699 95.6012 60.4521 94.9474 60.4652L95.2384 63.7912ZM92.1192 62.3884C92.1627 62.8854 92.3659 63.2583 92.7289 63.5072C93.0973 63.7557 93.6062 63.879 94.2554 63.8772L93.9644 60.5512C92.6459 60.7657 92.0308 61.378 92.1192 62.3884Z" fill="#292F36"/>
<path d="M102.966 64.4194C102.382 64.4705 101.844 64.391 101.352 64.1809C100.86 63.9653 100.461 63.6453 100.154 63.2208C99.8467 62.791 99.6687 62.2975 99.62 61.7404C99.5712 61.1834 99.6611 60.6692 99.8895 60.198C100.117 59.7213 100.455 59.3367 100.903 59.0444C101.35 58.7467 101.866 58.5722 102.45 58.5211C103.035 58.47 103.573 58.5522 104.065 58.7678C104.557 58.9779 104.956 59.2952 105.263 59.7196C105.57 60.144 105.748 60.6375 105.797 61.2C105.846 61.7625 105.756 62.2794 105.528 62.7507C105.3 63.2219 104.962 63.6064 104.514 63.9042C104.067 64.1965 103.551 64.3682 102.966 64.4194ZM102.885 63.4855C103.267 63.452 103.604 63.3373 103.895 63.1412C104.185 62.9397 104.404 62.6784 104.552 62.3572C104.7 62.0306 104.757 61.6762 104.724 61.2939C104.69 60.9116 104.573 60.5752 104.371 60.2846C104.169 59.9886 103.908 59.7694 103.587 59.6268C103.266 59.4788 102.914 59.4215 102.532 59.455C102.15 59.4884 101.813 59.6059 101.523 59.8074C101.232 60.0035 101.012 60.2648 100.865 60.5914C100.717 60.9125 100.66 61.2642 100.693 61.6465C100.727 62.0288 100.844 62.368 101.046 62.664C101.248 62.9545 101.509 63.1738 101.83 63.3218C102.151 63.4644 102.502 63.5189 102.885 63.4855Z" fill="#292F36"/>
<path d="M112.638 57.7123L113.14 63.4468L112.075 63.5399L111.86 61.0823L108.894 61.3418L109.109 63.7994L108.044 63.8926L107.543 58.1581L108.608 58.0649L108.815 60.4324L111.78 60.173L111.573 57.8055L112.638 57.7123Z" fill="#292F36"/>
</g>
<defs>
<clipPath id="clip0_476_181">
<rect width="124.615" height="20.7692" fill="white" transform="translate(0 60.0148) rotate(-5)"/>
</clipPath>
</defs>
</svg>
